# This file uses centimeters as units for non-parametric coordinates.

v -0.110432 -0.194490 0.276517
v -0.127473 -0.198730 0.258957
v -0.106193 -0.211529 0.258957
v 0.244236 -0.106225 0.258957
v 0.227197 -0.110466 0.276517
v 0.231438 -0.127505 0.258957
v -0.191012 0.129306 0.258957
v -0.203813 0.108025 0.258957
v -0.186775 0.112265 0.276517
v 0.167895 0.200531 0.258957
v 0.146616 0.213330 0.258957
v 0.150858 0.196289 0.276517
v -0.106193 -0.211530 -0.171479
v -0.127473 -0.198730 -0.171479
v 0.244236 -0.106225 -0.171479
v 0.231438 -0.127505 -0.171479
v -0.203813 0.108025 -0.171479
v -0.191012 0.129306 -0.171479
v 0.146616 0.213330 -0.171479
v 0.167895 0.200531 -0.171479
v -0.132224 -0.252791 -0.170829
v 0.272390 -0.151911 -0.170829
v -0.233105 0.151819 -0.170829
v 0.171509 0.252699 -0.170829
v -0.133856 -0.254253 -0.276517
v 0.274698 -0.152390 -0.276510
v -0.235244 0.152391 -0.276517
v 0.173311 0.254253 -0.276509
vt 0.787747 0.580633
vt 0.787494 0.564091
vt 0.775868 0.564091
vt 0.775779 0.580633
vt 0.788149 0.564091
vt 0.788281 0.580633
vt 0.787703 0.563416
vt 0.775477 0.563416
vt 0.775150 0.564091
vt 0.775082 0.580633
vt 0.801224 0.580633
vt 0.801124 0.564091
vt 0.775244 0.585984
vt 0.762142 0.585984
vt 0.801616 0.564091
vt 0.801616 0.580633
vt 0.801036 0.551268
vt 0.800999 0.563416
vt 0.775196 0.581472
vt 0.749615 0.563416
vt 0.761821 0.563416
vt 0.802446 0.585984
vt 0.788187 0.585984
vt 0.749705 0.564091
vt 0.761674 0.564091
vt 0.788204 0.581503
vt 0.762208 0.564091
vt 0.748940 0.563416
vt 0.761674 0.580633
vt 0.747871 0.585984
vt 0.787665 0.551268
vt 0.749705 0.580633
vt 0.748940 0.579958
vt 0.762208 0.580633
vt 0.802504 0.581804
vt 0.762129 0.581442
vt 0.747770 0.581140
vn -0.970401 -0.241498 0.000000
vn -0.970401 -0.241498 0.000000
vn -0.970401 -0.241498 0.000000
vn -0.970401 -0.241498 0.000000
vn 0.241500 -0.970401 0.000001
vn 0.241500 -0.970401 0.000001
vn 0.241500 -0.970401 0.000001
vn 0.241500 -0.970401 0.000001
vn -0.000001 -0.000000 1.000000
vn -0.000001 -0.000000 1.000000
vn -0.000001 -0.000000 1.000000
vn -0.000001 -0.000000 1.000000
vn 0.970401 0.241498 -0.000000
vn 0.970401 0.241498 -0.000000
vn 0.970401 0.241498 -0.000000
vn 0.970401 0.241498 -0.000000
vn -0.241498 0.970401 -0.000001
vn -0.241498 0.970401 -0.000001
vn -0.241498 0.970401 -0.000001
vn -0.241498 0.970401 -0.000001
vn -0.686194 -0.170771 0.707089
vn -0.686194 -0.170771 0.707089
vn -0.686194 -0.170771 0.707089
vn -0.686194 -0.170771 0.707089
vn -0.515420 -0.856938 0.000000
vn -0.515420 -0.856938 0.000000
vn -0.515420 -0.856938 0.000000
vn -0.515420 -0.856938 0.000000
vn 0.170771 -0.686200 0.707083
vn 0.170771 -0.686200 0.707083
vn 0.170771 -0.686200 0.707083
vn 0.170771 -0.686200 0.707083
vn 0.686221 0.170774 0.707062
vn 0.686221 0.170774 0.707062
vn 0.686221 0.170774 0.707062
vn 0.686221 0.170774 0.707062
vn 0.856965 -0.515375 0.000000
vn 0.856965 -0.515375 0.000000
vn 0.856965 -0.515375 0.000000
vn 0.856965 -0.515375 0.000000
vn -0.856904 0.515476 -0.000000
vn -0.856904 0.515476 -0.000000
vn -0.856904 0.515476 -0.000000
vn -0.856904 0.515476 -0.000000
vn -0.170764 0.686178 0.707106
vn -0.170764 0.686178 0.707106
vn -0.170764 0.686178 0.707106
vn -0.170764 0.686178 0.707106
vn 0.515407 0.856946 -0.000000
vn 0.515407 0.856946 -0.000000
vn 0.515407 0.856946 -0.000000
vn 0.515407 0.856946 -0.000000
vn -0.420834 -0.699703 0.577334
vn -0.420834 -0.699703 0.577334
vn -0.420834 -0.699703 0.577334
vn 0.699725 -0.420806 0.577328
vn 0.699725 -0.420805 0.577328
vn 0.699725 -0.420806 0.577328
vn -0.699706 0.420912 0.577273
vn -0.699706 0.420913 0.577273
vn -0.699706 0.420913 0.577273
vn 0.420835 0.699704 0.577332
vn 0.420835 0.699704 0.577332
vn 0.420835 0.699704 0.577332
vn -0.004877 0.018398 0.999819
vn -0.004326 0.018527 0.999819
vn 0.002679 0.016832 0.999855
vn -0.009984 0.014198 0.999849
vn 0.034497 0.008941 0.999365
vn 0.034672 0.008286 0.999364
vn 0.011020 -0.013800 0.999844
vn 0.005097 -0.019282 0.999801
vn 0.004537 -0.019427 0.999801
vn -0.002499 -0.017856 0.999838
vn -0.037781 -0.009783 0.999238
vn -0.037927 -0.009080 0.999239
vn 0.241908 -0.970251 0.009679
vn 0.241908 -0.970251 0.009679
vn 0.241908 -0.970251 0.009679
vn 0.241908 -0.970251 0.009679
vn -0.970133 -0.241882 0.018327
vn -0.970133 -0.241882 0.018327
vn -0.970133 -0.241882 0.018327
vn -0.970133 -0.241882 0.018327
vn -0.241906 0.970247 0.010146
vn -0.241906 0.970247 0.010146
vn -0.241906 0.970247 0.010146
vn -0.241906 0.970247 0.010146
vn 0.970100 0.241874 0.020097
vn 0.970100 0.241874 0.020097
vn 0.970100 0.241874 0.020097
vn 0.970100 0.241874 0.020097
s off
f 14/1/1 2/2/2 8/3/3 17/4/4
f 16/11/5 6/12/6 3/5/7 13/6/8
f 5/18/9 12/17/10 9/31/11 1/7/12
f 20/29/13 10/25/14 4/24/15 15/32/16
f 18/10/17 7/9/18 11/27/19 19/34/20
f 2/2/21 1/7/22 9/8/23 8/3/24
f 3/5/25 2/2/26 14/1/27 13/6/28
f 1/7/29 3/5/30 6/12/31 5/18/32
f 5/20/33 4/24/34 10/25/35 12/21/36
f 4/15/37 6/12/38 16/11/39 15/16/40
f 8/3/41 7/9/42 18/10/43 17/4/44
f 7/9/45 9/8/46 12/21/47 11/27/48
f 11/27/49 10/25/50 20/29/51 19/34/52
f 1/7/53 2/2/54 3/5/55
f 4/24/56 5/20/57 6/28/58
f 7/9/59 8/3/60 9/8/61
f 10/25/62 11/27/63 12/21/64
s 1
f 16/11/65 13/6/66 21/26/67 22/35/68
f 14/1/69 17/4/70 23/19/71 21/26/67
f 18/10/72 19/34/73 24/36/74 23/19/71
f 20/29/75 15/32/76 22/37/68 24/36/74
f 13/6/66 14/1/69 21/26/67
f 15/32/76 16/33/65 22/37/68
f 17/4/70 18/10/72 23/19/71
f 19/34/73 20/29/75 24/36/74
s off
f 22/35/77 21/26/78 25/23/79 26/22/80
f 21/26/81 23/19/82 27/13/83 25/23/84
f 23/19/85 24/36/86 28/14/87 27/13/88
f 24/36/89 22/37/90 26/30/91 28/14/92
